<?xml version="1.0" encoding="UTF-8" standalone="no"?>
<svg width="32px" height="32px" viewBox="0 0 32 32" version="1.1" xmlns="http://www.w3.org/2000/svg" xmlns:xlink="http://www.w3.org/1999/xlink">
    <!-- Generator: Sketch 41.2 (35397) - http://www.bohemiancoding.com/sketch -->
    <title>Quantity/Plus@mdpi</title>
    <desc>Created with Sketch.</desc>
    <defs></defs>
    <g id="Symbols" stroke="none" stroke-width="1" fill="none" fill-rule="evenodd">
        <g id="Quantity/Plus">
            <rect id="32-X-32" x="0" y="0" width="32" height="32"></rect>
            <path d="M15.0000216,16.9995 L11.0000216,16.9995 L11.0000216,14.9995 L15.0000216,14.9995 L15.0000216,10.9995 L17.0000216,10.9995 L17.0000216,14.9995 L21.0000216,14.9995 L21.0000216,16.9995 L17.0000216,16.9995 L17.0000216,20.9995 L15.0000216,20.9995 L15.0000216,16.9995 Z M16.0010216,27.999 L15.9780216,27.999 C12.7720216,27.992 9.76102162,26.739 7.49902162,24.468 C5.23702162,22.197 3.99402162,19.181 4.00002162,15.976 C4.01402162,9.368 9.39502162,4 16.0000216,4 L16.0230216,4 C19.2290216,4.006 22.2400216,5.26 24.5020216,7.53 C26.7630216,9.802 28.0060216,12.818 28.0000216,16.023 C27.9930216,19.228 26.7400216,22.239 24.4690216,24.501 C22.2040216,26.757 19.1980216,27.999 16.0010216,27.999 Z" id="Combined-Shape" fill="#0BC5D8"></path>
        </g>
        <g id="add-icon" transform="translate(-38.000000, 5.000000)">
            <g id="icon" transform="translate(40.000000, 0.000000)"></g>
        </g>
    </g>
</svg>